<svg width="64" height="16" xmlns="http://www.w3.org/2000/svg">
 <!-- Created with Method Draw - http://github.com/duopixel/Method-Draw/ -->
 <defs>
  <filter id="svg_40_blur">
   <feGaussianBlur stdDeviation="0" in="SourceGraphic"/>
  </filter>
 </defs>
 <g>
  <title>background</title>
  <rect fill="none" id="canvas_background" height="18" width="66" y="-1" x="-1"/>
  <g display="none" overflow="visible" y="0" x="0" height="100%" width="100%" id="canvasGrid">
   <rect fill="url(#gridpattern)" stroke-width="0" y="1" x="1" height="400" width="580"/>
  </g>
 </g>
 <g>
  <title>Layer 1</title>
  <g filter="url(#svg_40_blur)" id="svg_40">
   <g transform="matrix(0.3201256731703239,0,0,0.3201256731703239,0,0) " id="svg_25">
    <path id="svg_26" d="m16.088,0.000001c0.065,0 0.129,0 0.194,0c0.145,0.062 0.286,0.157 0.436,0.176c0.342,0.041 0.436,0.256 0.495,0.551c0.087,0.438 0.24,0.866 0.308,1.307c0.047,0.304 0.106,0.68 -0.025,0.926c-0.679,1.276 -0.111,2.396 0.758,3.081c0.265,0.209 0.508,0.585 0.549,0.912c0.187,1.472 1.083,2.138 2.445,2.402c0.271,0.053 0.582,0.284 0.731,0.521c0.625,0.996 1.637,1.513 2.831,1.366c0,0.032 0,0.064 0,0.098c-0.077,0.188 -0.175,0.372 -0.227,0.568c-1.74,6.6 -3.481,13.199 -5.203,19.804c-0.141,0.537 -0.45,0.899 -0.938,0.993c-0.54,0.104 -1.134,0.153 -1.665,0.039c-1.604,-0.346 -3.188,-0.784 -4.781,-1.185c-3.462,-0.872 -6.925,-1.743 -10.389,-2.613c-0.714,-0.18 -1.344,-0.464 -1.607,-1.229c0,-0.193 0,-0.388 0,-0.581c0.064,-0.193 0.14,-0.385 0.19,-0.582c1.698,-6.487 3.37,-12.979 5.1,-19.458c0.784,-2.934 2.496,-5.137 5.411,-6.255c1.495,-0.574 3.053,-0.761 4.646,-0.72c0.247,0.007 0.494,-0.078 0.741,-0.121zm-2.823,28.753c0.385,0.102 0.688,0.154 0.969,0.264c0.47,0.182 0.626,0 0.744,-0.454c1.372,-5.281 2.765,-10.557 4.15,-15.835c0.283,-1.077 0.275,-1.062 -0.77,-1.328c-0.401,-0.102 -0.558,-0.008 -0.664,0.399c-1.202,4.627 -2.423,9.249 -3.636,13.872c-0.264,1.008 -0.52,2.02 -0.793,3.082zm-3.508,-19.375c-1.521,5.801 -3.036,11.577 -4.561,17.392c0.395,0.108 0.725,0.178 1.04,0.289c0.404,0.144 0.56,-0.009 0.663,-0.401c1.353,-5.197 2.721,-10.392 4.079,-15.588c0.373,-1.43 0.365,-1.433 -1.221,-1.692z" fill="#F38600"/>
    <path id="svg_27" d="m6.046,46.961001c-1.786,-0.002 -3.191,-1.096 -3.438,-2.768c-0.072,-0.489 0.034,-1.029 0.16,-1.521c0.885,-3.444 1.796,-6.884 2.703,-10.323c0.179,-0.681 0.187,-0.684 0.838,-0.52c1.749,0.44 3.495,0.896 5.248,1.317c0.334,0.081 0.421,0.198 0.335,0.522c-0.432,1.649 -0.844,3.306 -1.274,4.955c-0.52,1.994 -1.038,3.987 -1.581,5.975c-0.402,1.472 -1.558,2.366 -2.991,2.363z" fill="#F38600" clip-rule="evenodd" fill-rule="evenodd"/>
   </g>
   <g transform="matrix(0.3201256731703239,0,0,0.3201256731703239,0,0) " id="svg_28">
    <rect id="svg_29" height="38.25" width="181.75" fill="none" y="14.480272" x="27.757456"/>
    <path id="svg_30" d="m30.457456,16.25674l6.03,0c1.08,0 2.07,0.1 2.97,0.3c0.9,0.2 1.665,0.524 2.295,0.975s1.12,1.046 1.47,1.785c0.35,0.74 0.525,1.65 0.525,2.73c0,1.04 -0.176,1.939 -0.525,2.699c-0.35,0.761 -0.845,1.391 -1.485,1.891c-0.64,0.5 -1.405,0.875 -2.295,1.125c-0.89,0.25 -1.875,0.375 -2.955,0.375l-3.54,0l0,7.8l-2.49,0l0,-19.68zm5.73,9.84c1.72,0 2.995,-0.325 3.825,-0.976c0.83,-0.649 1.245,-1.675 1.245,-3.074c0,-1.42 -0.42,-2.405 -1.26,-2.955c-0.84,-0.55 -2.11,-0.825 -3.81,-0.825l-3.24,0l0,7.83l3.24,0z" fill="#F38600"/>
    <path id="svg_31" d="m45.696456,28.67674c0,-1.22 0.186,-2.305 0.555,-3.255c0.371,-0.95 0.865,-1.755 1.486,-2.415c0.619,-0.66 1.334,-1.16 2.145,-1.5s1.666,-0.511 2.564,-0.511c0.9,0 1.756,0.171 2.566,0.511c0.809,0.34 1.523,0.84 2.145,1.5c0.619,0.66 1.115,1.465 1.484,2.415c0.371,0.95 0.555,2.035 0.555,3.255c0,1.2 -0.184,2.275 -0.555,3.225c-0.369,0.95 -0.865,1.75 -1.484,2.4c-0.621,0.65 -1.336,1.145 -2.145,1.484c-0.811,0.34 -1.666,0.511 -2.566,0.511c-0.898,0 -1.754,-0.171 -2.564,-0.511s-1.525,-0.834 -2.145,-1.484c-0.621,-0.65 -1.115,-1.45 -1.486,-2.4c-0.369,-0.949 -0.555,-2.025 -0.555,-3.225zm2.551,0c0,0.84 0.1,1.6 0.301,2.279c0.199,0.681 0.484,1.266 0.854,1.756c0.371,0.49 0.814,0.869 1.336,1.14c0.52,0.27 1.09,0.405 1.709,0.405c0.621,0 1.189,-0.136 1.711,-0.405c0.52,-0.271 0.965,-0.649 1.334,-1.14c0.371,-0.49 0.656,-1.075 0.855,-1.756c0.199,-0.68 0.301,-1.439 0.301,-2.279s-0.102,-1.605 -0.301,-2.295c-0.199,-0.69 -0.484,-1.285 -0.855,-1.785c-0.369,-0.5 -0.814,-0.885 -1.334,-1.155c-0.521,-0.27 -1.09,-0.405 -1.711,-0.405c-0.619,0 -1.189,0.136 -1.709,0.405c-0.521,0.271 -0.965,0.655 -1.336,1.155c-0.369,0.5 -0.654,1.095 -0.854,1.785c-0.201,0.69 -0.301,1.455 -0.301,2.295z" fill="#F38600"/>
    <path id="svg_32" d="m65.496456,37.16774l0,4.92l-2.46,0l0,-20.73l2.04,0l0.21,1.68l0.09,0c0.66,-0.56 1.385,-1.039 2.175,-1.439s1.615,-0.601 2.476,-0.601c0.939,0 1.77,0.176 2.49,0.525c0.72,0.351 1.319,0.851 1.8,1.5c0.479,0.65 0.845,1.431 1.095,2.34c0.25,0.91 0.375,1.936 0.375,3.075c0,1.24 -0.17,2.345 -0.51,3.315c-0.341,0.97 -0.801,1.795 -1.38,2.475c-0.581,0.68 -1.25,1.195 -2.011,1.545c-0.76,0.35 -1.56,0.525 -2.399,0.525c-0.681,0 -1.355,-0.15 -2.025,-0.45s-1.345,-0.71 -2.024,-1.23l0.058,2.55zm0,-4.471c0.66,0.561 1.3,0.955 1.92,1.186c0.62,0.229 1.17,0.345 1.65,0.345c0.6,0 1.154,-0.135 1.665,-0.405c0.51,-0.27 0.949,-0.649 1.319,-1.14s0.66,-1.095 0.87,-1.815c0.21,-0.72 0.315,-1.529 0.315,-2.43c0,-0.8 -0.07,-1.53 -0.21,-2.19c-0.141,-0.659 -0.365,-1.225 -0.675,-1.694c-0.311,-0.47 -0.711,-0.835 -1.2,-1.096c-0.49,-0.259 -1.075,-0.39 -1.755,-0.39c-0.62,0 -1.245,0.17 -1.875,0.51c-0.63,0.341 -1.306,0.83 -2.025,1.471l0,7.648l0.001,0z" fill="#F38600"/>
    <path id="svg_33" d="m84.605456,26.33674c0,-1.64 0.26,-3.095 0.779,-4.365c0.521,-1.27 1.22,-2.34 2.101,-3.21c0.88,-0.87 1.895,-1.535 3.045,-1.995c1.149,-0.46 2.354,-0.69 3.615,-0.69c1.239,0 2.364,0.255 3.375,0.766c1.01,0.51 1.864,1.115 2.564,1.814l-2.819,3.181c-0.48,-0.42 -0.95,-0.745 -1.41,-0.976c-0.461,-0.229 -1.011,-0.345 -1.65,-0.345c-0.58,0 -1.135,0.13 -1.665,0.39c-0.53,0.261 -0.99,0.63 -1.38,1.11c-0.39,0.479 -0.7,1.07 -0.93,1.77c-0.23,0.701 -0.346,1.49 -0.346,2.37c0,1.841 0.385,3.251 1.155,4.23c0.77,0.979 1.785,1.47 3.045,1.47c0.76,0 1.415,-0.145 1.965,-0.435s1.035,-0.665 1.455,-1.125l2.82,3.12c-0.84,0.96 -1.8,1.68 -2.88,2.159c-1.08,0.48 -2.22,0.721 -3.42,0.721c-1.28,0 -2.49,-0.206 -3.63,-0.615c-1.141,-0.41 -2.141,-1.03 -3,-1.86c-0.86,-0.829 -1.541,-1.869 -2.04,-3.12c-0.499,-1.249 -0.749,-2.704 -0.749,-4.365z" fill="#F38600"/>
    <path id="svg_34" d="m101.825456,28.43674c0,-1.24 0.205,-2.35 0.615,-3.33c0.409,-0.979 0.96,-1.805 1.649,-2.475c0.69,-0.67 1.485,-1.18 2.386,-1.53c0.899,-0.35 1.83,-0.525 2.79,-0.525s1.885,0.176 2.774,0.525c0.89,0.351 1.681,0.86 2.37,1.53c0.69,0.67 1.245,1.495 1.665,2.475c0.42,0.98 0.63,2.09 0.63,3.33s-0.21,2.351 -0.63,3.33c-0.42,0.98 -0.975,1.805 -1.665,2.475c-0.689,0.671 -1.48,1.181 -2.37,1.53s-1.814,0.525 -2.774,0.525s-1.891,-0.176 -2.79,-0.525c-0.9,-0.35 -1.695,-0.859 -2.386,-1.53c-0.689,-0.67 -1.24,-1.494 -1.649,-2.475c-0.41,-0.979 -0.615,-2.09 -0.615,-3.33zm5.28,0c0,1.14 0.165,2.045 0.495,2.715c0.33,0.671 0.885,1.005 1.665,1.005c0.779,0 1.335,-0.334 1.665,-1.005c0.329,-0.67 0.494,-1.575 0.494,-2.715s-0.165,-2.045 -0.494,-2.715c-0.33,-0.67 -0.886,-1.005 -1.665,-1.005c-0.78,0 -1.335,0.335 -1.665,1.005s-0.495,1.575 -0.495,2.715z" fill="#F38600"/>
    <path id="svg_35" d="m119.405456,20.93674l4.2,0l0.359,1.8l0.12,0c0.6,-0.58 1.285,-1.085 2.055,-1.515c0.771,-0.43 1.665,-0.646 2.686,-0.646c1.64,0 2.83,0.556 3.57,1.665c0.739,1.11 1.109,2.596 1.109,4.455l0,9.24l-5.16,0l0,-8.58c0,-0.96 -0.12,-1.6 -0.359,-1.92c-0.24,-0.319 -0.62,-0.48 -1.141,-0.48c-0.479,0 -0.88,0.101 -1.199,0.301c-0.32,0.2 -0.681,0.479 -1.08,0.84l0,9.84l-5.16,0l0,-15z" fill="#F38600"/>
    <path id="svg_36" d="m137.525456,24.95674l-1.98,0l0,-3.84l2.28,-0.18l0.6,-3.9l4.26,0l0,3.9l3.421,0l0,4.02l-3.421,0l0,5.131c0,0.84 0.181,1.415 0.54,1.725c0.36,0.311 0.78,0.465 1.261,0.465c0.239,0 0.475,-0.024 0.705,-0.075c0.229,-0.05 0.435,-0.104 0.614,-0.165l0.78,3.721c-0.4,0.12 -0.88,0.239 -1.44,0.359c-0.56,0.12 -1.26,0.181 -2.1,0.181c-0.98,0 -1.814,-0.146 -2.505,-0.436c-0.69,-0.289 -1.26,-0.705 -1.71,-1.245s-0.78,-1.185 -0.99,-1.935s-0.314,-1.585 -0.314,-2.505l0,-5.221l-0.001,0z" fill="#F38600"/>
    <path id="svg_37" d="m147.785456,28.43674c0,-1.22 0.205,-2.314 0.615,-3.285c0.409,-0.97 0.949,-1.795 1.62,-2.475c0.67,-0.68 1.435,-1.2 2.295,-1.561c0.859,-0.359 1.75,-0.54 2.67,-0.54c1.1,0 2.06,0.19 2.88,0.57c0.819,0.38 1.5,0.9 2.04,1.56c0.54,0.66 0.945,1.431 1.215,2.311c0.271,0.88 0.405,1.82 0.405,2.82c0,0.46 -0.025,0.869 -0.075,1.229s-0.095,0.63 -0.135,0.811l-8.55,0c0.239,0.96 0.669,1.619 1.29,1.979c0.619,0.36 1.35,0.54 2.189,0.54c0.52,0 1.024,-0.075 1.515,-0.225c0.49,-0.15 1.006,-0.375 1.546,-0.676l1.68,3.061c-0.82,0.58 -1.726,1.016 -2.715,1.305c-0.99,0.29 -1.905,0.436 -2.745,0.436c-1.101,0 -2.12,-0.176 -3.061,-0.525s-1.755,-0.859 -2.444,-1.53c-0.69,-0.67 -1.235,-1.494 -1.636,-2.475c-0.399,-0.979 -0.599,-2.09 -0.599,-3.33zm9.36,-1.68c0,-0.641 -0.146,-1.18 -0.436,-1.62c-0.29,-0.439 -0.825,-0.66 -1.604,-0.66c-0.581,0 -1.085,0.17 -1.516,0.51c-0.43,0.341 -0.725,0.931 -0.885,1.771l4.441,0l0,-0.001z" fill="#F38600"/>
    <path id="svg_38" d="m164.345456,20.93674l4.2,0l0.359,1.8l0.12,0c0.6,-0.58 1.285,-1.085 2.055,-1.515c0.771,-0.43 1.665,-0.646 2.686,-0.646c1.64,0 2.83,0.556 3.57,1.665c0.739,1.11 1.109,2.596 1.109,4.455l0,9.24l-5.16,0l0,-8.58c0,-0.96 -0.12,-1.6 -0.359,-1.92c-0.24,-0.319 -0.62,-0.48 -1.141,-0.48c-0.479,0 -0.88,0.101 -1.199,0.301c-0.32,0.2 -0.681,0.479 -1.08,0.84l0,9.84l-5.16,0l0,-15z" fill="#F38600"/>
    <path id="svg_39" d="m182.465456,24.95674l-1.98,0l0,-3.84l2.28,-0.18l0.6,-3.9l4.26,0l0,3.9l3.421,0l0,4.02l-3.421,0l0,5.131c0,0.84 0.181,1.415 0.54,1.725c0.36,0.311 0.78,0.465 1.261,0.465c0.239,0 0.475,-0.024 0.705,-0.075c0.229,-0.05 0.435,-0.104 0.614,-0.165l0.78,3.721c-0.4,0.12 -0.88,0.239 -1.44,0.359c-0.56,0.12 -1.26,0.181 -2.1,0.181c-0.98,0 -1.814,-0.146 -2.505,-0.436c-0.69,-0.289 -1.26,-0.705 -1.71,-1.245s-0.78,-1.185 -0.99,-1.935s-0.314,-1.585 -0.314,-2.505l0,-5.221l-0.001,0z" fill="#F38600"/>
   </g>
  </g>
 </g>
</svg>