<svg width="14" height="26" xmlns="http://www.w3.org/2000/svg">
 <!-- Created with Method Draw - http://github.com/duopixel/Method-Draw/ -->
 <defs>
  <filter id="svg_40_blur">
   <feGaussianBlur stdDeviation="0" in="SourceGraphic"/>
  </filter>
 </defs>
 <g>
  <title>background</title>
  <rect fill="none" id="canvas_background" height="28" width="16" y="-1" x="-1"/>
  <g display="none" overflow="visible" y="0" x="0" height="100%" width="100%" id="canvasGrid">
   <rect fill="url(#gridpattern)" stroke-width="0" y="1" x="1" height="400" width="580"/>
  </g>
 </g>
 <g>
  <title>Layer 1</title>
  <g filter="url(#svg_40_blur)" id="svg_40">
   <g transform="matrix(0.5349714204647991,0,0,0.5349714204647991,-0.6071916250144277,-0.13230295974282896) " id="svg_25">
    <path id="svg_26" d="m17.90281,1.065676c0.065,0 0.129,0 0.194,0c0.145,0.062 0.286,0.157 0.436,0.176c0.342,0.041 0.436,0.256 0.495,0.551c0.087,0.438 0.24,0.866 0.308,1.307c0.047,0.304 0.106,0.68 -0.025,0.926c-0.679,1.276 -0.111,2.396 0.758,3.081c0.265,0.209 0.508,0.585 0.549,0.912c0.187,1.472 1.083,2.138 2.445,2.402c0.271,0.053 0.582,0.284 0.731,0.521c0.625,0.996 1.637,1.513 2.831,1.366c0,0.032 0,0.064 0,0.098c-0.077,0.188 -0.175,0.372 -0.227,0.568c-1.74,6.6 -3.481,13.199 -5.203,19.804c-0.141,0.537 -0.45,0.899 -0.938,0.993c-0.54,0.104 -1.134,0.153 -1.665,0.039c-1.604,-0.346 -3.188,-0.784 -4.781,-1.185c-3.462,-0.872 -6.925,-1.743 -10.389,-2.613c-0.714,-0.18 -1.344,-0.464 -1.607,-1.229c0,-0.193 0,-0.388 0,-0.581c0.064,-0.193 0.14,-0.385 0.19,-0.582c1.698,-6.487 3.37,-12.979 5.1,-19.458c0.784,-2.934 2.496,-5.137 5.411,-6.255c1.495,-0.574 3.053,-0.761 4.646,-0.72c0.247,0.007 0.494,-0.078 0.741,-0.121zm-2.823,28.753c0.385,0.102 0.688,0.154 0.969,0.264c0.47,0.182 0.626,0 0.744,-0.454c1.372,-5.281 2.765,-10.557 4.15,-15.835c0.283,-1.077 0.275,-1.062 -0.77,-1.328c-0.401,-0.102 -0.558,-0.008 -0.664,0.399c-1.202,4.627 -2.423,9.249 -3.636,13.872c-0.264,1.008 -0.52,2.02 -0.793,3.082zm-3.508,-19.375c-1.521,5.801 -3.036,11.577 -4.561,17.392c0.395,0.108 0.725,0.178 1.04,0.289c0.404,0.144 0.56,-0.009 0.663,-0.401c1.353,-5.197 2.721,-10.392 4.079,-15.588c0.373,-1.43 0.365,-1.433 -1.221,-1.692z" fill="#F38600"/>
    <path id="svg_27" d="m7.86081,48.026676c-1.786,-0.002 -3.191,-1.096 -3.438,-2.768c-0.072,-0.489 0.034,-1.029 0.16,-1.521c0.885,-3.444 1.796,-6.884 2.703,-10.323c0.179,-0.681 0.187,-0.684 0.838,-0.52c1.749,0.44 3.495,0.896 5.248,1.317c0.334,0.081 0.421,0.198 0.335,0.522c-0.432,1.649 -0.844,3.306 -1.274,4.955c-0.52,1.994 -1.038,3.987 -1.581,5.975c-0.402,1.472 -1.558,2.366 -2.991,2.363z" fill="#F38600" clip-rule="evenodd" fill-rule="evenodd"/>
   </g>
  </g>
 </g>
</svg>